<mxfile host="65bd71144e">
    <diagram id="vi0DxBLSBJAR6mATj3BC" name="Page-1">
        <mxGraphModel dx="1002" dy="556" grid="1" gridSize="10" guides="1" tooltips="1" connect="1" arrows="1" fold="1" page="1" pageScale="1" pageWidth="827" pageHeight="1169" math="0" shadow="0">
            <root>
                <mxCell id="0"/>
                <mxCell id="1" parent="0"/>
                <mxCell id="3" value="id" style="whiteSpace=wrap;html=1;aspect=fixed;fontStyle=0;strokeWidth=2;" parent="1" vertex="1">
                    <mxGeometry x="190" y="110" width="40" height="40" as="geometry"/>
                </mxCell>
                <mxCell id="10" value="priority" style="rounded=0;whiteSpace=wrap;html=1;fontStyle=0;strokeWidth=2;" vertex="1" parent="1">
                    <mxGeometry x="230" y="110" width="40" height="40" as="geometry"/>
                </mxCell>
                <mxCell id="11" value="descri-&lt;div&gt;ption&lt;/div&gt;" style="whiteSpace=wrap;html=1;aspect=fixed;fontStyle=0;strokeWidth=2;" vertex="1" parent="1">
                    <mxGeometry x="270" y="110" width="40" height="40" as="geometry"/>
                </mxCell>
                <mxCell id="12" value="next" style="rounded=0;whiteSpace=wrap;html=1;fontStyle=0;strokeWidth=2;" vertex="1" parent="1">
                    <mxGeometry x="310" y="110" width="40" height="40" as="geometry"/>
                </mxCell>
                <mxCell id="14" style="edgeStyle=none;html=1;exitX=0.5;exitY=0;exitDx=0;exitDy=0;entryX=0;entryY=1;entryDx=0;entryDy=0;fontStyle=1" edge="1" parent="1" source="13" target="11">
                    <mxGeometry relative="1" as="geometry"/>
                </mxCell>
                <mxCell id="13" value="Node Structure" style="text;html=1;align=center;verticalAlign=middle;whiteSpace=wrap;rounded=0;fontStyle=1" vertex="1" parent="1">
                    <mxGeometry x="240" y="180" width="60" height="30" as="geometry"/>
                </mxCell>
                <mxCell id="15" value="NULL" style="text;html=1;align=center;verticalAlign=middle;whiteSpace=wrap;rounded=0;fontStyle=1" vertex="1" parent="1">
                    <mxGeometry x="510" y="130" width="60" height="30" as="geometry"/>
                </mxCell>
                <mxCell id="19" style="edgeStyle=none;html=1;exitX=0.5;exitY=0;exitDx=0;exitDy=0;entryX=0.5;entryY=1;entryDx=0;entryDy=0;" edge="1" parent="1" source="17" target="15">
                    <mxGeometry relative="1" as="geometry"/>
                </mxCell>
                <mxCell id="17" value="head" style="text;html=1;align=center;verticalAlign=middle;whiteSpace=wrap;rounded=0;fontStyle=1" vertex="1" parent="1">
                    <mxGeometry x="525" y="180" width="30" height="30" as="geometry"/>
                </mxCell>
                <mxCell id="21" style="edgeStyle=none;html=1;exitX=0.5;exitY=1;exitDx=0;exitDy=0;" edge="1" parent="1" source="20" target="15">
                    <mxGeometry relative="1" as="geometry"/>
                </mxCell>
                <mxCell id="20" value="tail" style="text;html=1;align=center;verticalAlign=middle;whiteSpace=wrap;rounded=0;fontStyle=1" vertex="1" parent="1">
                    <mxGeometry x="525" y="80" width="30" height="30" as="geometry"/>
                </mxCell>
                <mxCell id="26" value="2" style="whiteSpace=wrap;html=1;aspect=fixed;fontStyle=0;strokeWidth=2;" vertex="1" parent="1">
                    <mxGeometry x="310" y="300" width="40" height="40" as="geometry"/>
                </mxCell>
                <mxCell id="27" value="2" style="rounded=0;whiteSpace=wrap;html=1;fontStyle=0;strokeWidth=2;" vertex="1" parent="1">
                    <mxGeometry x="350" y="300" width="40" height="40" as="geometry"/>
                </mxCell>
                <mxCell id="28" value="AI-assigg" style="whiteSpace=wrap;html=1;aspect=fixed;fontStyle=0;strokeWidth=2;" vertex="1" parent="1">
                    <mxGeometry x="390" y="300" width="40" height="40" as="geometry"/>
                </mxCell>
                <mxCell id="56" style="edgeStyle=none;html=1;exitX=1;exitY=0.5;exitDx=0;exitDy=0;" edge="1" parent="1" source="29" target="50">
                    <mxGeometry relative="1" as="geometry"/>
                </mxCell>
                <mxCell id="29" value="next" style="rounded=0;whiteSpace=wrap;html=1;fontStyle=0;strokeWidth=2;" vertex="1" parent="1">
                    <mxGeometry x="430" y="300" width="40" height="40" as="geometry"/>
                </mxCell>
                <mxCell id="30" value="head" style="text;html=1;align=center;verticalAlign=middle;whiteSpace=wrap;rounded=0;fontStyle=1" vertex="1" parent="1">
                    <mxGeometry x="180" y="380" width="30" height="30" as="geometry"/>
                </mxCell>
                <mxCell id="32" value="" style="endArrow=none;html=1;endFill=0;exitX=0.5;exitY=0;exitDx=0;exitDy=0;edgeStyle=orthogonalEdgeStyle;entryX=0;entryY=1;entryDx=0;entryDy=0;" edge="1" parent="1" source="30" target="43">
                    <mxGeometry width="50" height="50" relative="1" as="geometry">
                        <mxPoint x="389.5" y="360" as="sourcePoint"/>
                        <mxPoint x="309.5" y="320" as="targetPoint"/>
                    </mxGeometry>
                </mxCell>
                <mxCell id="33" value="" style="endArrow=none;html=1;endFill=0;exitX=0.5;exitY=0;exitDx=0;exitDy=0;edgeStyle=orthogonalEdgeStyle;entryX=1;entryY=1;entryDx=0;entryDy=0;" edge="1" parent="1" source="30" target="46">
                    <mxGeometry width="50" height="50" relative="1" as="geometry">
                        <mxPoint x="439.5" y="340" as="sourcePoint"/>
                        <mxPoint x="469.5" y="320" as="targetPoint"/>
                    </mxGeometry>
                </mxCell>
                <mxCell id="43" value="1" style="whiteSpace=wrap;html=1;aspect=fixed;fontStyle=0;strokeWidth=2;" vertex="1" parent="1">
                    <mxGeometry x="110" y="300" width="40" height="40" as="geometry"/>
                </mxCell>
                <mxCell id="44" value="4" style="rounded=0;whiteSpace=wrap;html=1;fontStyle=0;strokeWidth=2;" vertex="1" parent="1">
                    <mxGeometry x="150" y="300" width="40" height="40" as="geometry"/>
                </mxCell>
                <mxCell id="45" value="quiz" style="whiteSpace=wrap;html=1;aspect=fixed;fontStyle=0;strokeWidth=2;" vertex="1" parent="1">
                    <mxGeometry x="190" y="300" width="40" height="40" as="geometry"/>
                </mxCell>
                <mxCell id="72" style="edgeStyle=none;html=1;exitX=1;exitY=0.5;exitDx=0;exitDy=0;entryX=0;entryY=0.5;entryDx=0;entryDy=0;" edge="1" parent="1" source="46" target="26">
                    <mxGeometry relative="1" as="geometry"/>
                </mxCell>
                <mxCell id="46" value="next" style="rounded=0;whiteSpace=wrap;html=1;fontStyle=0;strokeWidth=2;" vertex="1" parent="1">
                    <mxGeometry x="230" y="300" width="40" height="40" as="geometry"/>
                </mxCell>
                <mxCell id="57" style="edgeStyle=none;html=1;exitX=0.5;exitY=1;exitDx=0;exitDy=0;" edge="1" parent="1" source="48">
                    <mxGeometry relative="1" as="geometry">
                        <mxPoint x="525" y="290" as="targetPoint"/>
                    </mxGeometry>
                </mxCell>
                <mxCell id="48" value="temp" style="text;html=1;align=center;verticalAlign=middle;whiteSpace=wrap;rounded=0;fontStyle=1" vertex="1" parent="1">
                    <mxGeometry x="495" y="240" width="60" height="30" as="geometry"/>
                </mxCell>
                <mxCell id="50" value="3" style="whiteSpace=wrap;html=1;aspect=fixed;fontStyle=0;strokeWidth=2;" vertex="1" parent="1">
                    <mxGeometry x="510" y="300" width="40" height="40" as="geometry"/>
                </mxCell>
                <mxCell id="51" value="1" style="rounded=0;whiteSpace=wrap;html=1;fontStyle=0;strokeWidth=2;" vertex="1" parent="1">
                    <mxGeometry x="550" y="300" width="40" height="40" as="geometry"/>
                </mxCell>
                <mxCell id="52" value="mid-Prep" style="whiteSpace=wrap;html=1;aspect=fixed;fontStyle=0;strokeWidth=2;" vertex="1" parent="1">
                    <mxGeometry x="590" y="300" width="40" height="40" as="geometry"/>
                </mxCell>
                <mxCell id="62" style="edgeStyle=none;html=1;exitX=1;exitY=0.5;exitDx=0;exitDy=0;" edge="1" parent="1" source="53" target="58">
                    <mxGeometry relative="1" as="geometry"/>
                </mxCell>
                <mxCell id="53" value="next" style="rounded=0;whiteSpace=wrap;html=1;fontStyle=0;strokeWidth=2;" vertex="1" parent="1">
                    <mxGeometry x="630" y="300" width="40" height="40" as="geometry"/>
                </mxCell>
                <mxCell id="58" value="4" style="whiteSpace=wrap;html=1;aspect=fixed;fontStyle=0;strokeWidth=2;" vertex="1" parent="1">
                    <mxGeometry x="690" y="300" width="40" height="40" as="geometry"/>
                </mxCell>
                <mxCell id="59" value="1" style="rounded=0;whiteSpace=wrap;html=1;fontStyle=0;strokeWidth=2;" vertex="1" parent="1">
                    <mxGeometry x="730" y="300" width="40" height="40" as="geometry"/>
                </mxCell>
                <mxCell id="60" value="final-&lt;div&gt;prep&lt;/div&gt;" style="whiteSpace=wrap;html=1;aspect=fixed;fontStyle=0;strokeWidth=2;" vertex="1" parent="1">
                    <mxGeometry x="770" y="300" width="40" height="40" as="geometry"/>
                </mxCell>
                <mxCell id="61" value="null" style="rounded=0;whiteSpace=wrap;html=1;fontStyle=0;strokeWidth=2;" vertex="1" parent="1">
                    <mxGeometry x="810" y="300" width="40" height="40" as="geometry"/>
                </mxCell>
                <mxCell id="65" style="edgeStyle=none;html=1;exitX=0.5;exitY=1;exitDx=0;exitDy=0;" edge="1" parent="1" source="63">
                    <mxGeometry relative="1" as="geometry">
                        <mxPoint x="680" y="160" as="targetPoint"/>
                    </mxGeometry>
                </mxCell>
                <mxCell id="63" value="newNode" style="text;html=1;align=center;verticalAlign=middle;whiteSpace=wrap;rounded=0;fontStyle=1" vertex="1" parent="1">
                    <mxGeometry x="650" y="90" width="60" height="30" as="geometry"/>
                </mxCell>
                <mxCell id="66" value="Null" style="text;html=1;align=center;verticalAlign=middle;whiteSpace=wrap;rounded=0;fontStyle=1" vertex="1" parent="1">
                    <mxGeometry x="30" y="315" width="60" height="30" as="geometry"/>
                </mxCell>
                <mxCell id="70" style="edgeStyle=none;html=1;exitX=0.5;exitY=1;exitDx=0;exitDy=0;" edge="1" parent="1" source="71">
                    <mxGeometry relative="1" as="geometry">
                        <mxPoint x="390" y="300" as="targetPoint"/>
                        <Array as="points">
                            <mxPoint x="390" y="300"/>
                        </Array>
                    </mxGeometry>
                </mxCell>
                <mxCell id="71" value="prv" style="text;html=1;align=center;verticalAlign=middle;whiteSpace=wrap;rounded=0;fontStyle=1" vertex="1" parent="1">
                    <mxGeometry x="360" y="250" width="60" height="30" as="geometry"/>
                </mxCell>
                <mxCell id="73" value="2" style="whiteSpace=wrap;html=1;aspect=fixed;fontStyle=0;strokeWidth=2;" vertex="1" parent="1">
                    <mxGeometry x="310" y="460" width="40" height="40" as="geometry"/>
                </mxCell>
                <mxCell id="74" value="2" style="rounded=0;whiteSpace=wrap;html=1;fontStyle=0;strokeWidth=2;" vertex="1" parent="1">
                    <mxGeometry x="350" y="460" width="40" height="40" as="geometry"/>
                </mxCell>
                <mxCell id="75" value="AI-assigg" style="whiteSpace=wrap;html=1;aspect=fixed;fontStyle=0;strokeWidth=2;" vertex="1" parent="1">
                    <mxGeometry x="390" y="460" width="40" height="40" as="geometry"/>
                </mxCell>
                <mxCell id="99" style="edgeStyle=none;html=1;exitX=1;exitY=0.5;exitDx=0;exitDy=0;entryX=0;entryY=0.5;entryDx=0;entryDy=0;" edge="1" parent="1" source="77" target="92">
                    <mxGeometry relative="1" as="geometry"/>
                </mxCell>
                <mxCell id="77" value="next" style="rounded=0;whiteSpace=wrap;html=1;fontStyle=0;strokeWidth=2;" vertex="1" parent="1">
                    <mxGeometry x="430" y="460" width="40" height="40" as="geometry"/>
                </mxCell>
                <mxCell id="78" value="head" style="text;html=1;align=center;verticalAlign=middle;whiteSpace=wrap;rounded=0;fontStyle=1" vertex="1" parent="1">
                    <mxGeometry x="180" y="540" width="30" height="30" as="geometry"/>
                </mxCell>
                <mxCell id="79" value="" style="endArrow=none;html=1;endFill=0;exitX=0.5;exitY=0;exitDx=0;exitDy=0;edgeStyle=orthogonalEdgeStyle;entryX=0;entryY=1;entryDx=0;entryDy=0;" edge="1" parent="1" source="78" target="81">
                    <mxGeometry width="50" height="50" relative="1" as="geometry">
                        <mxPoint x="389.5" y="520" as="sourcePoint"/>
                        <mxPoint x="309.5" y="480" as="targetPoint"/>
                    </mxGeometry>
                </mxCell>
                <mxCell id="80" value="" style="endArrow=none;html=1;endFill=0;exitX=0.5;exitY=0;exitDx=0;exitDy=0;edgeStyle=orthogonalEdgeStyle;entryX=1;entryY=1;entryDx=0;entryDy=0;" edge="1" parent="1" source="78" target="85">
                    <mxGeometry width="50" height="50" relative="1" as="geometry">
                        <mxPoint x="439.5" y="500" as="sourcePoint"/>
                        <mxPoint x="469.5" y="480" as="targetPoint"/>
                    </mxGeometry>
                </mxCell>
                <mxCell id="81" value="1" style="whiteSpace=wrap;html=1;aspect=fixed;fontStyle=0;strokeWidth=2;" vertex="1" parent="1">
                    <mxGeometry x="110" y="460" width="40" height="40" as="geometry"/>
                </mxCell>
                <mxCell id="82" value="4" style="rounded=0;whiteSpace=wrap;html=1;fontStyle=0;strokeWidth=2;" vertex="1" parent="1">
                    <mxGeometry x="150" y="460" width="40" height="40" as="geometry"/>
                </mxCell>
                <mxCell id="83" value="quiz" style="whiteSpace=wrap;html=1;aspect=fixed;fontStyle=0;strokeWidth=2;" vertex="1" parent="1">
                    <mxGeometry x="190" y="460" width="40" height="40" as="geometry"/>
                </mxCell>
                <mxCell id="84" style="edgeStyle=none;html=1;exitX=1;exitY=0.5;exitDx=0;exitDy=0;entryX=0;entryY=0.5;entryDx=0;entryDy=0;" edge="1" parent="1" source="85" target="73">
                    <mxGeometry relative="1" as="geometry"/>
                </mxCell>
                <mxCell id="85" value="next" style="rounded=0;whiteSpace=wrap;html=1;fontStyle=0;strokeWidth=2;" vertex="1" parent="1">
                    <mxGeometry x="230" y="460" width="40" height="40" as="geometry"/>
                </mxCell>
                <mxCell id="92" value="4" style="whiteSpace=wrap;html=1;aspect=fixed;fontStyle=0;strokeWidth=2;" vertex="1" parent="1">
                    <mxGeometry x="510" y="460" width="40" height="40" as="geometry"/>
                </mxCell>
                <mxCell id="93" value="1" style="rounded=0;whiteSpace=wrap;html=1;fontStyle=0;strokeWidth=2;" vertex="1" parent="1">
                    <mxGeometry x="550" y="460" width="40" height="40" as="geometry"/>
                </mxCell>
                <mxCell id="94" value="final-&lt;div&gt;prep&lt;/div&gt;" style="whiteSpace=wrap;html=1;aspect=fixed;fontStyle=0;strokeWidth=2;" vertex="1" parent="1">
                    <mxGeometry x="590" y="460" width="40" height="40" as="geometry"/>
                </mxCell>
                <mxCell id="95" value="null" style="rounded=0;whiteSpace=wrap;html=1;fontStyle=0;strokeWidth=2;" vertex="1" parent="1">
                    <mxGeometry x="630" y="460" width="40" height="40" as="geometry"/>
                </mxCell>
                <mxCell id="96" value="Null" style="text;html=1;align=center;verticalAlign=middle;whiteSpace=wrap;rounded=0;fontStyle=1" vertex="1" parent="1">
                    <mxGeometry x="30" y="475" width="60" height="30" as="geometry"/>
                </mxCell>
                <mxCell id="97" style="edgeStyle=none;html=1;exitX=0.5;exitY=1;exitDx=0;exitDy=0;" edge="1" parent="1">
                    <mxGeometry relative="1" as="geometry">
                        <mxPoint x="390" y="460" as="targetPoint"/>
                        <Array as="points">
                            <mxPoint x="390" y="460"/>
                        </Array>
                        <mxPoint x="390" y="440" as="sourcePoint"/>
                    </mxGeometry>
                </mxCell>
                <mxCell id="98" value="prv" style="text;html=1;align=center;verticalAlign=middle;whiteSpace=wrap;rounded=0;fontStyle=1" vertex="1" parent="1">
                    <mxGeometry x="360" y="410" width="60" height="30" as="geometry"/>
                </mxCell>
                <mxCell id="137" value="2" style="whiteSpace=wrap;html=1;aspect=fixed;fontStyle=0;strokeWidth=2;" vertex="1" parent="1">
                    <mxGeometry x="310" y="605" width="40" height="40" as="geometry"/>
                </mxCell>
                <mxCell id="138" value="2" style="rounded=0;whiteSpace=wrap;html=1;fontStyle=0;strokeWidth=2;" vertex="1" parent="1">
                    <mxGeometry x="350" y="605" width="40" height="40" as="geometry"/>
                </mxCell>
                <mxCell id="139" value="AI-assigg" style="whiteSpace=wrap;html=1;aspect=fixed;fontStyle=0;strokeWidth=2;" vertex="1" parent="1">
                    <mxGeometry x="390" y="605" width="40" height="40" as="geometry"/>
                </mxCell>
                <mxCell id="140" style="edgeStyle=none;html=1;exitX=1;exitY=0.5;exitDx=0;exitDy=0;entryX=0;entryY=0.5;entryDx=0;entryDy=0;" edge="1" parent="1" source="141" target="150">
                    <mxGeometry relative="1" as="geometry"/>
                </mxCell>
                <mxCell id="141" value="next" style="rounded=0;whiteSpace=wrap;html=1;fontStyle=0;strokeWidth=2;" vertex="1" parent="1">
                    <mxGeometry x="430" y="605" width="40" height="40" as="geometry"/>
                </mxCell>
                <mxCell id="142" value="head" style="text;html=1;align=center;verticalAlign=middle;whiteSpace=wrap;rounded=0;fontStyle=1" vertex="1" parent="1">
                    <mxGeometry x="380" y="685" width="30" height="30" as="geometry"/>
                </mxCell>
                <mxCell id="143" value="" style="endArrow=none;html=1;endFill=0;exitX=0.5;exitY=0;exitDx=0;exitDy=0;edgeStyle=orthogonalEdgeStyle;entryX=0;entryY=1;entryDx=0;entryDy=0;" edge="1" parent="1" source="142">
                    <mxGeometry width="50" height="50" relative="1" as="geometry">
                        <mxPoint x="589.5" y="665" as="sourcePoint"/>
                        <mxPoint x="310" y="645" as="targetPoint"/>
                    </mxGeometry>
                </mxCell>
                <mxCell id="144" value="" style="endArrow=none;html=1;endFill=0;exitX=0.5;exitY=0;exitDx=0;exitDy=0;edgeStyle=orthogonalEdgeStyle;entryX=1;entryY=1;entryDx=0;entryDy=0;" edge="1" parent="1" source="142">
                    <mxGeometry width="50" height="50" relative="1" as="geometry">
                        <mxPoint x="639.5" y="645" as="sourcePoint"/>
                        <mxPoint x="470" y="645" as="targetPoint"/>
                    </mxGeometry>
                </mxCell>
                <mxCell id="145" value="1" style="whiteSpace=wrap;html=1;aspect=fixed;fontStyle=0;strokeWidth=2;" vertex="1" parent="1">
                    <mxGeometry x="110" y="605" width="40" height="40" as="geometry"/>
                </mxCell>
                <mxCell id="146" value="4" style="rounded=0;whiteSpace=wrap;html=1;fontStyle=0;strokeWidth=2;" vertex="1" parent="1">
                    <mxGeometry x="150" y="605" width="40" height="40" as="geometry"/>
                </mxCell>
                <mxCell id="147" value="quiz" style="whiteSpace=wrap;html=1;aspect=fixed;fontStyle=0;strokeWidth=2;" vertex="1" parent="1">
                    <mxGeometry x="190" y="605" width="40" height="40" as="geometry"/>
                </mxCell>
                <mxCell id="148" style="edgeStyle=none;html=1;exitX=1;exitY=0.5;exitDx=0;exitDy=0;entryX=0;entryY=0.5;entryDx=0;entryDy=0;" edge="1" parent="1" source="149" target="137">
                    <mxGeometry relative="1" as="geometry"/>
                </mxCell>
                <mxCell id="149" value="next" style="rounded=0;whiteSpace=wrap;html=1;fontStyle=0;strokeWidth=2;" vertex="1" parent="1">
                    <mxGeometry x="230" y="605" width="40" height="40" as="geometry"/>
                </mxCell>
                <mxCell id="150" value="4" style="whiteSpace=wrap;html=1;aspect=fixed;fontStyle=0;strokeWidth=2;" vertex="1" parent="1">
                    <mxGeometry x="510" y="605" width="40" height="40" as="geometry"/>
                </mxCell>
                <mxCell id="151" value="1" style="rounded=0;whiteSpace=wrap;html=1;fontStyle=0;strokeWidth=2;" vertex="1" parent="1">
                    <mxGeometry x="550" y="605" width="40" height="40" as="geometry"/>
                </mxCell>
                <mxCell id="152" value="final-&lt;div&gt;prep&lt;/div&gt;" style="whiteSpace=wrap;html=1;aspect=fixed;fontStyle=0;strokeWidth=2;" vertex="1" parent="1">
                    <mxGeometry x="590" y="605" width="40" height="40" as="geometry"/>
                </mxCell>
                <mxCell id="153" value="null" style="rounded=0;whiteSpace=wrap;html=1;fontStyle=0;strokeWidth=2;" vertex="1" parent="1">
                    <mxGeometry x="630" y="605" width="40" height="40" as="geometry"/>
                </mxCell>
                <mxCell id="154" style="edgeStyle=none;html=1;exitX=0.5;exitY=1;exitDx=0;exitDy=0;" edge="1" parent="1">
                    <mxGeometry relative="1" as="geometry">
                        <mxPoint x="166" y="605" as="targetPoint"/>
                        <Array as="points">
                            <mxPoint x="166" y="605"/>
                        </Array>
                        <mxPoint x="166" y="585" as="sourcePoint"/>
                    </mxGeometry>
                </mxCell>
                <mxCell id="155" value="temp" style="text;html=1;align=center;verticalAlign=middle;whiteSpace=wrap;rounded=0;fontStyle=1" vertex="1" parent="1">
                    <mxGeometry x="130" y="555" width="60" height="30" as="geometry"/>
                </mxCell>
                <mxCell id="156" value="2" style="whiteSpace=wrap;html=1;aspect=fixed;fontStyle=0;strokeWidth=2;" vertex="1" parent="1">
                    <mxGeometry x="310" y="760" width="40" height="40" as="geometry"/>
                </mxCell>
                <mxCell id="157" value="2" style="rounded=0;whiteSpace=wrap;html=1;fontStyle=0;strokeWidth=2;" vertex="1" parent="1">
                    <mxGeometry x="350" y="760" width="40" height="40" as="geometry"/>
                </mxCell>
                <mxCell id="158" value="AI-assigg" style="whiteSpace=wrap;html=1;aspect=fixed;fontStyle=0;strokeWidth=2;" vertex="1" parent="1">
                    <mxGeometry x="390" y="760" width="40" height="40" as="geometry"/>
                </mxCell>
                <mxCell id="159" style="edgeStyle=none;html=1;exitX=1;exitY=0.5;exitDx=0;exitDy=0;entryX=0;entryY=0.5;entryDx=0;entryDy=0;" edge="1" parent="1" source="160" target="164">
                    <mxGeometry relative="1" as="geometry"/>
                </mxCell>
                <mxCell id="160" value="next" style="rounded=0;whiteSpace=wrap;html=1;fontStyle=0;strokeWidth=2;" vertex="1" parent="1">
                    <mxGeometry x="430" y="760" width="40" height="40" as="geometry"/>
                </mxCell>
                <mxCell id="161" value="head" style="text;html=1;align=center;verticalAlign=middle;whiteSpace=wrap;rounded=0;fontStyle=1" vertex="1" parent="1">
                    <mxGeometry x="380" y="840" width="30" height="30" as="geometry"/>
                </mxCell>
                <mxCell id="162" value="" style="endArrow=none;html=1;endFill=0;exitX=0.5;exitY=0;exitDx=0;exitDy=0;edgeStyle=orthogonalEdgeStyle;entryX=0;entryY=1;entryDx=0;entryDy=0;" edge="1" parent="1" source="161">
                    <mxGeometry width="50" height="50" relative="1" as="geometry">
                        <mxPoint x="589.5" y="820" as="sourcePoint"/>
                        <mxPoint x="310" y="800" as="targetPoint"/>
                    </mxGeometry>
                </mxCell>
                <mxCell id="163" value="" style="endArrow=none;html=1;endFill=0;exitX=0.5;exitY=0;exitDx=0;exitDy=0;edgeStyle=orthogonalEdgeStyle;entryX=1;entryY=1;entryDx=0;entryDy=0;" edge="1" parent="1" source="161">
                    <mxGeometry width="50" height="50" relative="1" as="geometry">
                        <mxPoint x="639.5" y="800" as="sourcePoint"/>
                        <mxPoint x="470" y="800" as="targetPoint"/>
                    </mxGeometry>
                </mxCell>
                <mxCell id="164" value="4" style="whiteSpace=wrap;html=1;aspect=fixed;fontStyle=0;strokeWidth=2;" vertex="1" parent="1">
                    <mxGeometry x="510" y="760" width="40" height="40" as="geometry"/>
                </mxCell>
                <mxCell id="165" value="1" style="rounded=0;whiteSpace=wrap;html=1;fontStyle=0;strokeWidth=2;" vertex="1" parent="1">
                    <mxGeometry x="550" y="760" width="40" height="40" as="geometry"/>
                </mxCell>
                <mxCell id="166" value="final-&lt;div&gt;prep&lt;/div&gt;" style="whiteSpace=wrap;html=1;aspect=fixed;fontStyle=0;strokeWidth=2;" vertex="1" parent="1">
                    <mxGeometry x="590" y="760" width="40" height="40" as="geometry"/>
                </mxCell>
                <mxCell id="167" value="null" style="rounded=0;whiteSpace=wrap;html=1;fontStyle=0;strokeWidth=2;" vertex="1" parent="1">
                    <mxGeometry x="630" y="760" width="40" height="40" as="geometry"/>
                </mxCell>
                <mxCell id="168" value="Null" style="text;html=1;align=center;verticalAlign=middle;whiteSpace=wrap;rounded=0;fontStyle=1" vertex="1" parent="1">
                    <mxGeometry x="720" y="970" width="60" height="30" as="geometry"/>
                </mxCell>
                <mxCell id="169" style="edgeStyle=none;html=1;exitX=0.5;exitY=1;exitDx=0;exitDy=0;" edge="1" parent="1" source="170">
                    <mxGeometry relative="1" as="geometry">
                        <mxPoint x="360" y="760" as="targetPoint"/>
                    </mxGeometry>
                </mxCell>
                <mxCell id="170" value="temp" style="text;html=1;align=center;verticalAlign=middle;whiteSpace=wrap;rounded=0;fontStyle=1" vertex="1" parent="1">
                    <mxGeometry x="330" y="710" width="60" height="30" as="geometry"/>
                </mxCell>
                <mxCell id="172" value="2" style="whiteSpace=wrap;html=1;aspect=fixed;fontStyle=0;strokeWidth=2;" vertex="1" parent="1">
                    <mxGeometry x="334" y="965" width="40" height="40" as="geometry"/>
                </mxCell>
                <mxCell id="173" value="2" style="rounded=0;whiteSpace=wrap;html=1;fontStyle=0;strokeWidth=2;" vertex="1" parent="1">
                    <mxGeometry x="374" y="965" width="40" height="40" as="geometry"/>
                </mxCell>
                <mxCell id="174" value="AI-assigg" style="whiteSpace=wrap;html=1;aspect=fixed;fontStyle=0;strokeWidth=2;" vertex="1" parent="1">
                    <mxGeometry x="414" y="965" width="40" height="40" as="geometry"/>
                </mxCell>
                <mxCell id="175" style="edgeStyle=none;html=1;exitX=1;exitY=0.5;exitDx=0;exitDy=0;entryX=0;entryY=0.5;entryDx=0;entryDy=0;" edge="1" parent="1" source="176" target="185">
                    <mxGeometry relative="1" as="geometry"/>
                </mxCell>
                <mxCell id="176" value="next" style="rounded=0;whiteSpace=wrap;html=1;fontStyle=0;strokeWidth=2;" vertex="1" parent="1">
                    <mxGeometry x="454" y="965" width="40" height="40" as="geometry"/>
                </mxCell>
                <mxCell id="177" value="head" style="text;html=1;align=center;verticalAlign=middle;whiteSpace=wrap;rounded=0;fontStyle=1" vertex="1" parent="1">
                    <mxGeometry x="203.5" y="1045" width="30" height="30" as="geometry"/>
                </mxCell>
                <mxCell id="178" value="" style="endArrow=none;html=1;endFill=0;exitX=0.5;exitY=0;exitDx=0;exitDy=0;edgeStyle=orthogonalEdgeStyle;entryX=0;entryY=1;entryDx=0;entryDy=0;" edge="1" parent="1" source="177">
                    <mxGeometry width="50" height="50" relative="1" as="geometry">
                        <mxPoint x="413" y="1025" as="sourcePoint"/>
                        <mxPoint x="133.5" y="1005" as="targetPoint"/>
                    </mxGeometry>
                </mxCell>
                <mxCell id="179" value="" style="endArrow=none;html=1;endFill=0;exitX=0.5;exitY=0;exitDx=0;exitDy=0;edgeStyle=orthogonalEdgeStyle;entryX=1;entryY=1;entryDx=0;entryDy=0;" edge="1" parent="1" source="177">
                    <mxGeometry width="50" height="50" relative="1" as="geometry">
                        <mxPoint x="463" y="1005" as="sourcePoint"/>
                        <mxPoint x="293.5" y="1005" as="targetPoint"/>
                    </mxGeometry>
                </mxCell>
                <mxCell id="180" value="1" style="whiteSpace=wrap;html=1;aspect=fixed;fontStyle=0;strokeWidth=2;" vertex="1" parent="1">
                    <mxGeometry x="134" y="965" width="40" height="40" as="geometry"/>
                </mxCell>
                <mxCell id="181" value="4" style="rounded=0;whiteSpace=wrap;html=1;fontStyle=0;strokeWidth=2;" vertex="1" parent="1">
                    <mxGeometry x="174" y="965" width="40" height="40" as="geometry"/>
                </mxCell>
                <mxCell id="182" value="quiz" style="whiteSpace=wrap;html=1;aspect=fixed;fontStyle=0;strokeWidth=2;" vertex="1" parent="1">
                    <mxGeometry x="214" y="965" width="40" height="40" as="geometry"/>
                </mxCell>
                <mxCell id="183" style="edgeStyle=none;html=1;exitX=1;exitY=0.5;exitDx=0;exitDy=0;entryX=0;entryY=0.5;entryDx=0;entryDy=0;" edge="1" parent="1" source="184" target="172">
                    <mxGeometry relative="1" as="geometry"/>
                </mxCell>
                <mxCell id="184" value="next" style="rounded=0;whiteSpace=wrap;html=1;fontStyle=0;strokeWidth=2;" vertex="1" parent="1">
                    <mxGeometry x="254" y="965" width="40" height="40" as="geometry"/>
                </mxCell>
                <mxCell id="185" value="4" style="whiteSpace=wrap;html=1;aspect=fixed;fontStyle=0;strokeWidth=2;" vertex="1" parent="1">
                    <mxGeometry x="534" y="965" width="40" height="40" as="geometry"/>
                </mxCell>
                <mxCell id="186" value="1" style="rounded=0;whiteSpace=wrap;html=1;fontStyle=0;strokeWidth=2;" vertex="1" parent="1">
                    <mxGeometry x="574" y="965" width="40" height="40" as="geometry"/>
                </mxCell>
                <mxCell id="187" value="final-&lt;div&gt;prep&lt;/div&gt;" style="whiteSpace=wrap;html=1;aspect=fixed;fontStyle=0;strokeWidth=2;" vertex="1" parent="1">
                    <mxGeometry x="614" y="965" width="40" height="40" as="geometry"/>
                </mxCell>
                <mxCell id="188" value="null" style="rounded=0;whiteSpace=wrap;html=1;fontStyle=0;strokeWidth=2;" vertex="1" parent="1">
                    <mxGeometry x="654" y="965" width="40" height="40" as="geometry"/>
                </mxCell>
                <mxCell id="191" style="edgeStyle=none;html=1;exitX=0.5;exitY=1;exitDx=0;exitDy=0;" edge="1" parent="1" source="190">
                    <mxGeometry relative="1" as="geometry">
                        <mxPoint x="594" y="950" as="targetPoint"/>
                    </mxGeometry>
                </mxCell>
                <mxCell id="190" value="temp" style="text;html=1;align=center;verticalAlign=middle;whiteSpace=wrap;rounded=0;fontStyle=1" vertex="1" parent="1">
                    <mxGeometry x="564" y="890" width="60" height="30" as="geometry"/>
                </mxCell>
            </root>
        </mxGraphModel>
    </diagram>
</mxfile>